<svg width="300" height="352" viewBox="0 0 300 352" fill="none" xmlns="http://www.w3.org/2000/svg">
<rect x="51" y="128" width="196" height="147" rx="40" stroke="#2394DF" stroke-width="8" stroke-linecap="round" stroke-linejoin="round"/>
<rect x="51" y="70" width="196" height="39" stroke="#2394DF" stroke-width="8" stroke-linecap="round" stroke-linejoin="round"/>
<rect x="77" y="151" width="40" height="28" fill="#2394DF"/>
<rect x="77" y="187" width="40" height="28" fill="#2394DF"/>
<rect x="77" y="223" width="40" height="28" fill="#2394DF"/>
<rect x="129" y="151" width="35" height="28" fill="#2394DF"/>
<rect x="181" y="187" width="40" height="28" fill="#2394DF"/>
<rect x="181" y="223" width="40" height="28" fill="#2394DF"/>
<rect x="129" y="151" width="40" height="28" fill="#2394DF"/>
<rect x="181" y="151" width="40" height="28" fill="#2394DF"/>
<rect x="129" y="187" width="40" height="28" fill="#2394DF"/>
<rect x="129" y="223" width="40" height="28" fill="#2394DF"/>
<rect x="191" y="227" width="70" height="68" fill="black"/>
<g clip-path="url(#clip0)">
<path d="M213.364 289.862C218.961 292.437 225.194 293.3 231.28 292.342C237.366 291.385 243.033 288.651 247.569 284.482C252.105 280.314 255.308 274.898 256.775 268.914C258.242 262.931 257.908 256.647 255.815 250.853C253.722 245.059 249.963 240.013 245.01 236.349C240.057 232.685 234.132 230.567 227.979 230.261C221.826 229.954 215.72 231.473 210.428 234.627C205.135 237.78 200.893 242.428 198.235 247.985C196.446 251.723 195.419 255.779 195.213 259.917C195.007 264.056 195.626 268.194 197.034 272.09C198.442 275.987 200.611 279.565 203.414 282.616C206.218 285.667 209.6 288.13 213.364 289.862ZM206.43 251.768C208.931 246.434 213.446 242.31 218.983 240.301C224.521 238.292 230.63 238.562 235.969 241.051C241.302 243.552 245.426 248.067 247.435 253.604C249.444 259.142 249.175 265.25 246.686 270.59C244.878 274.412 242.023 277.643 238.452 279.907C234.881 282.171 230.741 283.374 226.513 283.378C223.395 283.359 220.32 282.652 217.507 281.306C214.834 280.101 212.427 278.379 210.422 276.239C208.417 274.1 206.855 271.586 205.826 268.84C204.797 266.095 204.32 263.174 204.424 260.244C204.527 257.314 205.209 254.433 206.43 251.768Z" fill="#2394DF"/>
<path d="M186.867 278.082C185.979 280.177 185.243 282.333 184.663 284.534C184.401 285.588 184.377 286.688 184.593 287.753C184.809 288.818 185.26 289.822 185.912 290.692C187.88 293.338 190.093 295.793 192.523 298.023C193.87 299.246 195.624 299.925 197.445 299.93H198.473C200.775 299.561 203.055 299.072 205.305 298.463L208.023 299.856L210.961 301.103C211.933 303.199 213.037 305.231 214.267 307.188C214.836 308.096 215.599 308.869 216.5 309.451C217.401 310.034 218.419 310.413 219.482 310.56C221.674 310.853 223.883 311 226.094 311H229.326C230.428 310.911 231.496 310.575 232.45 310.016C233.404 309.457 234.219 308.691 234.835 307.774C236.172 305.932 237.375 303.996 238.435 301.982L243.283 300.223C245.396 301.052 247.554 301.762 249.747 302.349C250.357 302.421 250.974 302.421 251.584 302.349C253.148 302.333 254.666 301.819 255.918 300.883C258.585 298.966 261.046 296.779 263.263 294.358C263.997 293.554 264.542 292.598 264.86 291.558C265.178 290.519 265.26 289.421 265.1 288.346C265.1 286.073 264.218 283.727 263.631 281.528C264.072 280.648 264.586 279.768 265.026 278.815C265.467 277.862 265.835 276.909 266.275 275.883C268.375 274.913 270.412 273.811 272.372 272.584C273.283 272.015 274.057 271.255 274.641 270.355C275.224 269.456 275.604 268.44 275.751 267.378C276.083 264.112 276.083 260.821 275.751 257.554C275.679 256.467 275.365 255.409 274.831 254.457C274.297 253.506 273.558 252.686 272.666 252.056C270.819 250.745 268.88 249.569 266.863 248.537C266.349 246.85 265.761 245.238 265.1 243.625C265.931 241.516 266.642 239.362 267.23 237.173C267.492 236.118 267.516 235.019 267.3 233.954C267.084 232.889 266.634 231.885 265.981 231.015C264.064 228.35 261.873 225.893 259.444 223.683C258.078 222.444 256.294 221.764 254.449 221.777H253.42C251.107 222.083 248.823 222.573 246.588 223.243L243.87 221.85L240.932 220.604C240.08 218.612 239.099 216.677 237.994 214.812C237.424 213.904 236.662 213.131 235.761 212.549C234.86 211.966 233.842 211.587 232.778 211.44C230.587 211.147 228.378 211 226.167 211H222.935C221.845 211.072 220.785 211.386 219.832 211.919C218.879 212.451 218.057 213.189 217.426 214.079C216.111 215.948 214.933 217.908 213.9 219.944C212.211 220.388 210.564 220.977 208.978 221.704C206.878 220.818 204.718 220.083 202.514 219.504C201.904 219.428 201.287 219.428 200.677 219.504C199.113 219.52 197.595 220.034 196.343 220.971C193.69 222.932 191.23 225.141 188.997 227.569C188.274 228.364 187.735 229.308 187.417 230.334C187.1 231.36 187.012 232.444 187.161 233.507C187.459 235.817 187.95 238.098 188.63 240.325C188.116 241.205 187.675 242.158 187.234 243.038C186.793 243.918 186.353 245.018 185.985 245.971C183.854 246.925 181.792 248.027 179.815 249.27C178.905 249.838 178.131 250.599 177.547 251.498C176.963 252.398 176.584 253.414 176.436 254.475C176.03 257.684 175.907 260.922 176.069 264.152C176.149 265.246 176.475 266.308 177.022 267.26C177.568 268.212 178.322 269.029 179.227 269.651C181.098 270.986 183.062 272.187 185.104 273.243C185.561 274.901 186.15 276.519 186.867 278.082ZM183.782 255.355C186.331 253.714 189.069 252.385 191.935 251.396C192.454 249.539 193.117 247.725 193.919 245.971C194.734 244.27 195.666 242.629 196.71 241.059C195.658 238.24 194.919 235.314 194.507 232.334C196.382 230.264 198.448 228.374 200.677 226.689C203.596 227.44 206.428 228.497 209.125 229.842C212.24 228.174 215.58 226.964 219.042 226.249C220.19 223.444 221.669 220.786 223.449 218.331H226.167C228.058 218.344 229.947 218.466 231.823 218.698C233.415 221.261 234.721 223.989 235.717 226.836C237.578 227.353 239.395 228.015 241.153 228.815C242.865 229.612 244.51 230.543 246.074 231.601C248.899 230.551 251.83 229.814 254.816 229.402C256.909 231.254 258.805 233.318 260.472 235.56C259.753 238.484 258.693 241.314 257.313 243.991C259.01 247.096 260.247 250.43 260.986 253.888C263.748 255.04 266.362 256.517 268.773 258.287C269.065 261.066 269.065 263.867 268.773 266.645C266.205 268.234 263.471 269.537 260.619 270.531C260.1 272.388 259.437 274.202 258.636 275.956C257.837 277.665 256.904 279.307 255.844 280.868C256.921 283.684 257.685 286.61 258.121 289.592C256.24 291.683 254.148 293.575 251.877 295.237C248.971 294.52 246.16 293.462 243.503 292.085C240.367 293.78 237.002 295.014 233.513 295.751C232.356 298.491 230.903 301.097 229.179 303.522H226.094C224.226 303.546 222.359 303.423 220.511 303.155C218.867 300.611 217.535 297.879 216.544 295.018C214.683 294.5 212.866 293.838 211.108 293.038C209.405 292.225 207.76 291.294 206.187 290.252C203.365 291.327 200.433 292.089 197.445 292.525C195.369 290.628 193.476 288.542 191.789 286.293C192.54 283.403 193.599 280.601 194.947 277.936C193.27 274.804 192.057 271.445 191.348 267.965C188.557 266.839 185.896 265.414 183.414 263.713C183.28 260.921 183.403 258.124 183.782 255.355Z" fill="#2394DF"/>
</g>
<circle cx="87" cy="89" r="10" fill="#2394DF"/>
<circle cx="211" cy="89" r="10" fill="#2394DF"/>
<defs>
<clipPath id="clip0">
<rect x="176" y="211" width="100" height="100" fill="white"/>
</clipPath>
</defs>
</svg>
