<svg width="300" height="352" viewBox="0 0 300 352" fill="none" xmlns="http://www.w3.org/2000/svg">
<path d="M262.047 164.354C262.673 162.935 263 161.364 263 159.769C263 158.175 262.673 156.603 262.047 155.185C258.851 145.37 252.668 137.258 244.671 132.387C247.208 128.672 248.805 124.208 249.28 119.497C249.757 114.787 249.094 110.015 247.367 105.717C245.64 101.42 242.917 97.7664 239.504 95.1674C236.091 92.5683 232.121 91.1263 228.043 91.0031C224.176 90.9335 220.361 92.0404 216.977 94.2139C213.592 96.3874 210.755 99.5519 208.748 103.393C208.388 104.09 208.151 104.863 208.052 105.668C207.954 106.473 207.995 107.292 208.174 108.078C208.353 108.864 208.666 109.6 209.094 110.242C209.522 110.885 210.057 111.421 210.667 111.819C211.268 112.246 211.936 112.53 212.632 112.656C213.328 112.781 214.038 112.745 214.722 112.549C215.407 112.353 216.05 112.001 216.616 111.515C217.183 111.028 217.661 110.415 218.022 109.712C219.123 106.91 221.043 104.652 223.443 103.342C225.841 102.031 228.562 101.753 231.121 102.556C233.68 103.359 235.911 105.191 237.416 107.727C238.922 110.263 239.604 113.337 239.341 116.403C239.381 119.052 238.73 121.653 237.474 123.865C236.219 126.076 234.417 127.794 232.306 128.794C231.244 129.294 230.349 130.179 229.754 131.317C229.158 132.455 228.895 133.786 229.002 135.113C229.161 136.413 229.654 137.627 230.414 138.599C231.174 139.571 232.167 140.255 233.266 140.564C237.122 141.484 240.752 143.398 243.888 146.164C247.024 148.93 249.587 152.478 251.387 156.548H232.732C231.319 156.548 229.964 157.201 228.964 158.362C227.964 159.524 227.402 161.1 227.402 162.743C227.402 164.386 227.964 165.962 228.964 167.124C229.964 168.285 231.319 168.938 232.732 168.938H253.306C254.982 169.145 256.675 168.83 258.211 168.024C259.748 167.218 261.071 165.951 262.047 164.354Z" fill="#2394DF"/>
<path d="M45.2428 175.974H64.4208C65.8258 175.974 67.1733 175.36 68.1669 174.265C69.1603 173.171 69.7185 171.688 69.7185 170.14C69.7185 168.594 69.1603 167.109 68.1669 166.015C67.1733 164.921 65.8258 164.307 64.4208 164.307H45.9845C48.0265 159.073 51.1976 154.466 55.2229 150.888C59.2482 147.309 64.0059 144.867 69.0828 143.772C70.4878 143.912 71.8856 143.431 72.9686 142.435C74.0515 141.439 74.7309 140.011 74.8574 138.464C74.9838 136.917 74.547 135.377 73.6428 134.185C72.7387 132.993 71.4415 132.244 70.0364 132.105C67.9231 131.241 66.0216 129.848 64.4825 128.034C62.9433 126.221 61.8088 124.038 61.1689 121.658C60.529 119.278 60.4012 116.766 60.7957 114.322C61.1903 111.878 62.0962 109.569 63.4418 107.578C64.7874 105.587 66.5357 103.968 68.5481 102.85C70.5606 101.731 72.7818 101.145 75.0359 101.136C77.2901 101.127 79.5151 101.696 81.5347 102.799C83.5543 103.901 85.313 105.506 86.6714 107.487C87.5607 108.672 88.8386 109.422 90.2274 109.575C91.6162 109.728 93.0036 109.271 94.0883 108.304C94.6287 107.809 95.0743 107.201 95.3992 106.516C95.7242 105.83 95.922 105.079 95.9812 104.309C96.0404 103.538 95.9596 102.761 95.7439 102.025C95.528 101.289 95.1813 100.607 94.7241 100.02C91.4084 95.5913 86.9188 92.4141 81.883 90.9328C76.8472 89.4515 71.5168 89.7401 66.6372 91.7582C61.7576 93.7764 57.5728 97.4232 54.6677 102.189C51.7626 106.954 50.2826 112.601 50.4346 118.338C50.4341 125.111 52.6539 131.657 56.686 136.772C46.7667 142.177 39.1611 151.641 35.4949 163.14C35.0368 164.608 34.894 166.172 35.0779 167.711C35.2617 169.249 35.7672 170.72 36.5545 172.007C37.6276 173.36 38.97 174.422 40.477 175.11C41.984 175.799 43.615 176.094 45.2428 175.974Z" fill="#2394DF"/>
<g clip-path="url(#clip0)">
<path d="M149.454 235.998C160.628 236.074 171.666 233.549 181.695 228.623C191.726 223.697 200.473 216.504 207.246 207.613C217.433 194.8 222.985 178.914 223 162.542C223.015 146.17 217.491 130.274 207.327 117.442C200.688 108.774 192.171 101.725 182.417 96.8224C172.663 91.9202 161.926 89.2931 151.011 89.1385C150.502 89.1045 150.002 89 149.49 89C149.012 89 148.551 89.0998 148.082 89.1291C137.153 89.2778 126.399 91.8954 116.623 96.7864C106.848 101.677 98.3034 108.715 91.629 117.374C81.5131 130.215 76.0083 146.087 76 162.436C75.9917 178.785 81.4804 194.663 91.5833 207.514C98.3759 216.41 107.136 223.611 117.176 228.553C127.217 233.494 138.265 236.043 149.454 235.998ZM174.956 218.719C177.878 214.01 180.274 208.994 182.101 203.761C185.664 204.575 189.125 205.508 192.489 206.601C187.415 211.656 181.477 215.761 174.956 218.719ZM200.332 196.917C195.435 195.137 190.434 193.658 185.357 192.488C187.192 184.423 188.255 176.2 188.532 167.932H210.806C209.892 178.34 206.282 188.33 200.332 196.917ZM210.745 156.195H188.515C188.194 148.232 187.14 140.314 185.367 132.544C190.445 131.344 195.446 129.843 200.346 128.048C206.154 136.39 209.734 146.079 210.745 156.195ZM192.443 118.36C189.089 119.446 185.638 120.375 182.083 121.184C180.266 115.993 177.889 111.016 174.993 106.34C181.476 109.283 187.385 113.353 192.448 118.36H192.443ZM155.356 102.563C162.463 107.663 167.691 114.965 170.231 123.338C165.332 124.01 160.373 124.44 155.356 124.629V102.563ZM155.356 136.541C161.521 136.329 167.67 135.756 173.769 134.825C175.374 141.846 176.332 148.999 176.63 156.195H155.356V136.541ZM155.356 167.932H176.672C176.408 175.448 175.427 182.922 173.739 190.25C167.646 189.346 161.507 188.788 155.35 188.58L155.356 167.932ZM155.356 200.302C160.381 200.491 165.346 200.924 170.249 201.6C167.712 209.992 162.477 217.312 155.356 222.424V200.302ZM106.456 206.584C109.832 205.489 113.303 204.554 116.882 203.739C118.708 208.977 121.104 213.999 124.028 218.714C117.5 215.743 111.55 211.636 106.456 206.584ZM143.623 222.422C136.501 217.307 131.266 209.983 128.732 201.586C133.636 200.914 138.6 200.484 143.623 200.295V222.422ZM143.623 188.574C137.469 188.78 131.331 189.334 125.239 190.236C123.557 182.913 122.579 175.445 122.317 167.936H143.623V188.574ZM143.623 102.564V124.637C138.604 124.45 133.647 124.02 128.75 123.346C131.288 114.971 136.515 107.666 143.623 102.564ZM143.623 136.544V156.195H122.36C122.656 149.002 123.612 141.852 125.217 134.834C131.314 135.762 137.46 136.334 143.623 136.544ZM123.994 106.332C121.094 111.016 118.714 116.002 116.896 121.203C113.322 120.39 109.856 119.459 106.48 118.367C111.565 113.356 117.494 109.282 123.994 106.332ZM98.5875 128.051C103.503 129.853 108.522 131.358 113.618 132.558C111.849 140.324 110.799 148.237 110.481 156.195H88.2548C89.2694 146.092 92.824 136.41 98.5875 128.051ZM110.458 167.932C110.734 176.191 111.794 184.405 113.626 192.463C108.525 193.635 103.501 195.121 98.5828 196.911C92.6788 188.308 89.098 178.326 88.1879 167.931L110.458 167.932Z" fill="#2394DF"/>
</g>
<ellipse cx="150" cy="220" rx="21" ry="24" fill="black"/>
<path d="M184 268.5C184 261.207 180.365 254.212 173.895 249.055C167.425 243.897 158.65 241 149.5 241C140.35 241 131.575 243.897 125.105 249.055C118.635 254.212 115 261.207 115 268.5L149.5 268.5H184Z" fill="black"/>
<path d="M109.653 266.032C109.132 267.521 108.918 269.127 109.028 270.726C109.139 272.325 109.571 273.873 110.291 275.251C111.345 276.819 112.719 278.07 114.294 278.895C115.868 279.72 117.596 280.092 119.325 279.981H180.437C182.158 280.058 183.87 279.657 185.426 278.812C186.981 277.967 188.333 276.703 189.365 275.129C190.207 273.725 190.742 272.113 190.928 270.424C191.113 268.736 190.942 267.022 190.428 265.426C186.489 253.78 178.813 244.282 168.959 238.862C171.665 235.393 173.594 231.227 174.582 226.721C175.569 222.216 175.585 217.504 174.629 212.989C173.672 208.475 171.772 204.292 169.088 200.799C166.406 197.306 163.022 194.607 159.226 192.933C155.43 191.259 151.335 190.659 147.291 191.185C143.248 191.712 139.376 193.348 136.008 195.955C132.64 198.562 129.875 202.062 127.951 206.154C126.026 210.247 124.999 214.81 124.958 219.455C124.994 226.627 127.339 233.535 131.548 238.862C121.398 244.273 113.53 254.037 109.653 266.032ZM143.664 246.503C144.788 246.226 145.806 245.548 146.57 244.567C147.335 243.585 147.806 242.352 147.915 241.045C148.022 239.747 147.759 238.444 147.165 237.33C146.572 236.215 145.679 235.349 144.62 234.859C141.234 233.61 138.366 230.988 136.558 227.489C134.75 223.991 134.128 219.858 134.808 215.871C135.488 211.885 137.425 208.32 140.251 205.852C143.077 203.383 146.597 202.182 150.147 202.474C153.522 202.484 156.79 203.833 159.39 206.289C161.991 208.746 163.763 212.157 164.403 215.939C165.043 219.721 164.512 223.64 162.9 227.025C161.289 230.41 158.697 233.051 155.567 234.495C154.56 235.114 153.75 236.082 153.254 237.258C152.757 238.435 152.6 239.76 152.804 241.045C152.944 242.34 153.425 243.555 154.185 244.53C154.944 245.505 155.945 246.193 157.055 246.503C162.167 247.623 166.961 250.154 171.019 253.875C175.076 257.597 178.273 262.395 180.331 267.851H120.919C122.979 262.508 126.11 257.79 130.061 254.083C134.012 250.374 138.672 247.778 143.664 246.503Z" fill="#2394DF"/>
<defs>
<clipPath id="clip0">
<rect x="76" y="89" width="147" height="147" fill="white"/>
</clipPath>
</defs>
</svg>
