<svg width="361" height="435" viewBox="0 0 361 435" fill="none" xmlns="http://www.w3.org/2000/svg">
<rect x="81.9554" y="83" width="196" height="237" rx="12" stroke="#2394DF" stroke-width="10" stroke-linejoin="round"/>
<line x1="182.929" y1="124.5" x2="260.982" y2="124.5" stroke="#2394DF" stroke-width="6" stroke-linecap="round" stroke-linejoin="round"/>
<line x1="182.955" y1="158" x2="261.009" y2="158" stroke="#2394DF" stroke-width="6" stroke-linecap="round" stroke-linejoin="round"/>
<line x1="182.955" y1="191" x2="261.009" y2="191" stroke="#2394DF" stroke-width="6" stroke-linecap="round" stroke-linejoin="round"/>
<line x1="182.955" y1="224" x2="261.009" y2="224" stroke="#2394DF" stroke-width="6" stroke-linecap="round" stroke-linejoin="round"/>
<line x1="121.955" y1="83" x2="121.955" y2="320" stroke="#2394DF" stroke-width="4"/>
<circle cx="103.455" cy="156.5" r="7.5" fill="#2394DF"/>
<circle cx="103.455" cy="246.5" r="7.5" fill="#2394DF"/>
<circle cx="103.455" cy="291.5" r="7.5" fill="#2394DF"/>
<circle cx="103.455" cy="111.5" r="7.5" fill="#2394DF"/>
<circle cx="103.455" cy="201.5" r="7.5" fill="#2394DF"/>
<line x1="71.9554" y1="111.5" x2="103.955" y2="111.5" stroke="#2394DF" stroke-width="9"/>
<line x1="71.9554" y1="156.5" x2="103.955" y2="156.5" stroke="#2394DF" stroke-width="9"/>
<line x1="71.9554" y1="201.5" x2="103.955" y2="201.5" stroke="#2394DF" stroke-width="9"/>
<line x1="71.9554" y1="246.5" x2="103.955" y2="246.5" stroke="#2394DF" stroke-width="9"/>
<line x1="71.9554" y1="291.5" x2="103.955" y2="291.5" stroke="#2394DF" stroke-width="9"/>
<rect x="287.298" y="178.468" width="36" height="144" rx="5" transform="rotate(45 287.298 178.468)" fill="#2394DF" stroke="#2394DF" stroke-linejoin="round"/>
<path d="M187.909 275.746C198.804 282.709 208.161 292.593 214.64 303.982L169.099 322.124L187.909 275.746Z" fill="black"/>
<path d="M180.119 294.923C186.443 299.011 191.846 304.831 195.556 311.553L168.711 322.515L180.119 294.923Z" fill="#2394DF"/>
<path d="M151.549 136.948C154.789 138.764 155.221 138.703 158.646 135.04L167.028 126.095C169.015 123.977 174.723 118.353 175.749 117.258C177.652 115.221 177.705 115.098 172.942 112.438C169.208 110.345 169.025 110.342 165.852 113.732C163.292 116.467 161.437 118.716 158.821 121.506L151.688 129.114L141.932 123.635C140.006 122.55 139.268 122.404 137.736 124.373L136.589 125.863C135.269 127.603 136.249 128.358 137.363 128.979L151.552 136.941L151.549 136.948Z" fill="#2394DF"/>
<path d="M151.549 168.948C154.789 170.764 155.221 170.703 158.646 167.04L167.028 158.095C169.015 155.977 174.723 150.353 175.749 149.258C177.652 147.221 177.705 147.098 172.942 144.438C169.208 142.345 169.025 142.342 165.852 145.732C163.292 148.467 161.437 150.716 158.821 153.506L151.688 161.114L141.932 155.635C140.006 154.55 139.268 154.404 137.736 156.373L136.589 157.863C135.269 159.603 136.249 160.358 137.363 160.979L151.552 168.941L151.549 168.948Z" fill="#2394DF"/>
</svg>
