<svg width="361" height="462" viewBox="0 0 361 462" fill="none" xmlns="http://www.w3.org/2000/svg">
<rect x="81.9554" y="119" width="196" height="237" rx="12" stroke="#2394DF" stroke-width="10" stroke-linejoin="round"/>
<line x1="182.929" y1="160.5" x2="260.982" y2="160.5" stroke="#2394DF" stroke-width="6" stroke-linecap="round" stroke-linejoin="round"/>
<line x1="182.955" y1="194" x2="261.009" y2="194" stroke="#2394DF" stroke-width="6" stroke-linecap="round" stroke-linejoin="round"/>
<line x1="182.955" y1="227" x2="261.009" y2="227" stroke="#2394DF" stroke-width="6" stroke-linecap="round" stroke-linejoin="round"/>
<line x1="182.955" y1="260" x2="261.009" y2="260" stroke="#2394DF" stroke-width="6" stroke-linecap="round" stroke-linejoin="round"/>
<line x1="121.955" y1="119" x2="121.955" y2="356" stroke="#2394DF" stroke-width="4"/>
<circle cx="103.455" cy="192.5" r="7.5" fill="#2394DF"/>
<circle cx="103.455" cy="282.5" r="7.5" fill="#2394DF"/>
<circle cx="103.455" cy="327.5" r="7.5" fill="#2394DF"/>
<circle cx="103.455" cy="147.5" r="7.5" fill="#2394DF"/>
<circle cx="103.455" cy="237.5" r="7.5" fill="#2394DF"/>
<line x1="71.9554" y1="147.5" x2="103.955" y2="147.5" stroke="#2394DF" stroke-width="9"/>
<line x1="71.9554" y1="192.5" x2="103.955" y2="192.5" stroke="#2394DF" stroke-width="9"/>
<line x1="71.9554" y1="237.5" x2="103.955" y2="237.5" stroke="#2394DF" stroke-width="9"/>
<line x1="71.9554" y1="282.5" x2="103.955" y2="282.5" stroke="#2394DF" stroke-width="9"/>
<line x1="71.9554" y1="327.5" x2="103.955" y2="327.5" stroke="#2394DF" stroke-width="9"/>
<rect x="287.298" y="214.468" width="36" height="144" rx="5" transform="rotate(45 287.298 214.468)" fill="#2394DF" stroke="#2394DF" stroke-linejoin="round"/>
<path d="M187.909 311.746C198.804 318.709 208.161 328.593 214.64 339.982L169.099 358.124L187.909 311.746Z" fill="black"/>
<path d="M180.119 330.923C186.443 335.011 191.846 340.831 195.556 347.553L168.711 358.515L180.119 330.923Z" fill="#2394DF"/>
<path d="M151.549 172.948C154.789 174.764 155.221 174.703 158.646 171.04L167.028 162.095C169.015 159.977 174.723 154.353 175.749 153.258C177.652 151.221 177.705 151.098 172.942 148.438C169.208 146.345 169.025 146.342 165.852 149.732C163.292 152.467 161.437 154.716 158.821 157.506L151.688 165.114L141.932 159.635C140.006 158.55 139.268 158.404 137.736 160.373L136.589 161.863C135.269 163.603 136.249 164.358 137.363 164.979L151.552 172.941L151.549 172.948Z" fill="#2394DF"/>
<path d="M151.549 204.948C154.789 206.764 155.221 206.703 158.646 203.04L167.028 194.095C169.015 191.977 174.723 186.353 175.749 185.258C177.652 183.221 177.705 183.098 172.942 180.438C169.208 178.345 169.025 178.342 165.852 181.732C163.292 184.467 161.437 186.716 158.821 189.506L151.688 197.114L141.932 191.635C140.006 190.55 139.268 190.404 137.736 192.373L136.589 193.863C135.269 195.603 136.249 196.358 137.363 196.979L151.552 204.941L151.549 204.948Z" fill="#2394DF"/>
</svg>
